<svg xmlns="http://www.w3.org/2000/svg" viewBox="0 0 536 133"><defs><clipPath clipPathUnits="userSpaceOnUse" id="cp1"><path d="M-1339.62 -611.39L546.31 -611.39L546.31 292.01L-1339.62 292.01L-1339.62 -611.39Z" /></clipPath><clipPath clipPathUnits="userSpaceOnUse" id="cp2"><path d="M-1339.62 -611.39L546.31 -611.39L546.31 292.01L-1339.62 292.01L-1339.62 -611.39Z" /></clipPath><clipPath clipPathUnits="userSpaceOnUse" id="cp3"><path d="M-1339.62 -611.39L546.31 -611.39L546.31 292.01L-1339.62 292.01L-1339.62 -611.39Z" /></clipPath></defs><style>tspan { white-space:pre }.shp0 { fill: #fbfbfc } .shp1 { fill: #281829 } .shp2 { fill: #eb6353 } .shp3 { fill: #000000 } </style><g ><path class="shp0" d="M-1339.62 292.01L-163.76 292.01L-163.76 -611.39L-1339.62 -611.39L-1339.62 292.01Z" /><path class="shp1" d="M-163.76 -159.69L546.31 -159.69L546.31 -611.39L-163.76 -611.39L-163.76 -159.69Z" /><g ><g clip-path="url(#cp1)"><g ><g ><path fill-rule="evenodd" class="shp1" d="M-868.52 -367.93C-868.52 -371.32 -865.77 -374.07 -862.37 -374.07L-677.08 -374.07C-673.69 -374.07 -670.94 -371.32 -670.94 -367.93C-670.94 -356.78 -671.9 -345.85 -673.73 -335.21C-663.09 -337.04 -652.16 -338 -641.01 -338C-637.62 -338 -634.87 -335.25 -634.87 -331.86L-634.87 -146.57C-634.87 -143.17 -637.62 -140.42 -641.01 -140.42L-862.37 -140.42C-865.77 -140.42 -868.52 -143.17 -868.52 -146.57L-868.52 -367.93ZM-856.23 -188.89C-846.24 -189.23 -836.45 -190.38 -826.94 -192.29C-818.92 -225.02 -802.49 -254.44 -780.07 -278.13C-779.97 -278.24 -779.86 -278.35 -779.76 -278.46C-778.64 -279.63 -777.52 -280.79 -776.37 -281.93C-752.06 -306.25 -721.23 -324.05 -686.73 -332.51C-684.82 -342.02 -683.67 -351.8 -683.33 -361.79L-856.23 -361.79L-856.23 -188.89ZM-785.43 -192.59C-785.69 -192.45 -785.96 -192.33 -786.24 -192.24C-795.99 -188.01 -806.15 -184.57 -816.65 -181.99C-818.56 -172.48 -819.71 -162.7 -820.05 -152.71L-647.15 -152.71L-647.15 -325.61C-657.14 -325.27 -666.92 -324.12 -676.43 -322.21C-684.89 -287.71 -702.69 -256.88 -727.01 -232.57C-728.16 -231.42 -729.32 -230.28 -730.5 -229.16C-730.59 -229.07 -730.69 -228.98 -730.79 -228.89C-746.67 -213.85 -765.13 -201.51 -785.43 -192.59ZM-798.75 -200.42C-800.3 -202.06 -801.91 -203.7 -803.56 -205.36L-803.55 -205.37L-803.56 -205.38C-805.19 -207.02 -806.85 -208.63 -808.52 -210.2C-810.34 -205.42 -811.96 -200.54 -813.37 -195.57C-808.4 -196.98 -803.53 -198.6 -798.75 -200.42ZM-690.01 -318.93C-708.46 -313.69 -725.7 -305.57 -741.21 -295.09C-736.26 -290.87 -731.52 -286.48 -726.99 -281.95C-722.46 -277.42 -718.07 -272.67 -713.85 -267.73C-703.37 -283.24 -695.25 -300.48 -690.01 -318.93ZM-721.28 -257.53C-725.8 -262.94 -730.61 -268.19 -735.67 -273.26C-740.74 -278.33 -745.99 -283.14 -751.41 -287.66C-756.62 -283.58 -761.61 -279.21 -766.34 -274.58C-760.51 -269.73 -754.94 -264.64 -749.62 -259.32C-744.31 -254 -739.21 -248.42 -734.36 -242.6C-729.73 -247.33 -725.36 -252.32 -721.28 -257.53ZM-743.26 -234.11C-748 -239.83 -753.02 -245.34 -758.31 -250.63C-763.59 -255.92 -769.11 -260.94 -774.83 -265.68C-779.17 -260.8 -783.26 -255.67 -787.06 -250.33C-781.89 -245.94 -776.95 -241.39 -772.26 -236.7C-767.56 -232 -763.01 -227.05 -758.61 -221.88C-753.27 -225.68 -748.15 -229.76 -743.26 -234.11ZM-803.45 -222.2C-800.52 -219.54 -797.66 -216.81 -794.88 -214.03L-794.87 -214.05C-792.17 -211.34 -789.45 -208.49 -786.73 -205.49C-780.6 -208.35 -774.65 -211.55 -768.91 -215.07C-772.72 -219.48 -776.74 -223.8 -780.95 -228.01C-785.15 -232.21 -789.46 -236.22 -793.87 -240.03C-797.39 -234.29 -800.59 -228.34 -803.45 -222.2ZM-829.65 -179.29C-838.33 -177.79 -847.2 -176.88 -856.23 -176.6L-856.23 -152.71L-832.34 -152.71C-832.06 -161.74 -831.15 -170.61 -829.65 -179.29ZM-717.93 -294.92C-717.93 -291.24 -720.91 -288.26 -724.59 -288.26C-728.26 -288.26 -731.25 -291.24 -731.25 -294.92C-731.25 -298.6 -728.26 -301.58 -724.59 -301.58C-720.91 -301.58 -717.93 -298.6 -717.93 -294.92Z" /></g></g></g></g><path fill="#281829" d="M-925.95 -67.94L-925.95 -68.19L-924.77 -67.94L-878.76 -67.94L-877.83 -68.19Q-873.81 -68.19 -873.13 -63.05Q-874.06 -58.79 -878.26 -58.79L-921.25 -58.79L-921.25 -27.12L-893.1 -27.12L-889.76 -27.37Q-886.61 -27.37 -885.56 -22.67Q-885.56 -19.57 -889.33 -17.96L-894.03 -18.21L-921.25 -18.21L-921.25 15.12L-921 16.55Q-922.05 21 -925.45 21L-925.95 21Q-930.4 20.2 -930.4 16.55L-930.4 -63.49Q-929.72 -67.94 -925.95 -67.94ZM-830.45 -68.56L-829.28 -68.37L-820.49 -68.37L-819.57 -68.56Q-814.87 -67.57 -814.87 -63.86Q-815.67 -59.16 -819.32 -59.16L-820.31 -59.16L-820.31 11.78L-818.89 11.78Q-815.79 11.78 -814.87 16.3L-814.87 16.55Q-815.67 21 -819.32 21L-830.45 21Q-834.9 20.2 -834.9 16.55L-834.9 16.3Q-833.98 11.78 -830.88 11.78L-829.46 11.78L-829.46 -59.16L-830.45 -59.16Q-834.35 -59.16 -834.9 -64.1L-834.9 -64.35Q-834.9 -67.26 -830.45 -68.56ZM-745.78 -67.88Q-734.28 -67.88 -726.61 -57.49L-726.36 -56.5L-726.36 -55.07Q-726.36 -52.04 -730.87 -51.3Q-732.73 -51.3 -737.25 -56.31Q-741.33 -58.91 -745.04 -58.91L-746.46 -58.91Q-754.25 -58.91 -758.27 -50.62Q-759.2 -48.64 -759.2 -46.6L-759.2 -44.68Q-759.2 -35.72 -748.38 -31.7Q-740.59 -31.7 -731.56 -24.4Q-722.83 -15.55 -722.83 -4.98Q-722.83 8.01 -733.97 16.3Q-740.77 21 -749.06 21Q-762.48 21 -771.26 9.43L-771.76 7.52Q-770.95 3.06 -767.24 3.06Q-764.77 3.06 -760.87 8.01Q-755.06 12.03 -750.23 12.03L-748.13 12.03Q-738.73 12.03 -732.98 1.39Q-732.05 -2.07 -732.05 -3.8L-732.05 -6.15Q-732.05 -15.49 -742.69 -21.3L-754.75 -24.64Q-768.23 -32.38 -768.23 -44.93L-768.23 -46.6Q-768.23 -58.97 -755 -65.96Q-750.05 -67.88 -745.78 -67.88ZM-678.37 -67.63L-677.44 -67.63Q-673.23 -66.76 -673.23 -63.92L-673.23 -26.93L-629.2 -26.93L-629.2 -63.24Q-628.45 -67.63 -624.99 -67.63L-624.31 -67.63Q-620.1 -66.83 -620.1 -63.42L-620.1 17.04Q-620.1 20.07 -624.56 21L-624.8 21Q-629.2 20.2 -629.2 16.55L-629.2 -18.09L-673.23 -18.09L-673.23 16.79Q-673.23 20.26 -677.62 21L-677.87 21Q-681.46 21 -682.32 16.3L-682.32 -62.5Q-681.77 -67.63 -678.37 -67.63Z" /><path fill="#281829" d="M-911.94 40.07L-911.78 40.07Q-911.27 40.07 -910.95 40.82L-907.36 46.2L-907.32 46.2Q-903.44 40.34 -903.29 40.23Q-903.08 40.07 -902.93 40.07L-902.69 40.07Q-902.21 40.07 -902.03 40.82Q-902.03 41.16 -903.37 43L-906.57 47.77L-906.57 54.14Q-906.66 55 -907.23 55L-907.4 55Q-907.91 55 -908.11 54.36L-908.11 47.9Q-908.11 47.75 -909.77 45.28L-912.57 41.06L-912.61 40.82Q-912.44 40.07 -911.94 40.07ZM-887.87 40.05Q-884.09 40.05 -881.55 43.55Q-880.4 45.54 -880.4 47.56Q-880.4 51.3 -883.79 53.78Q-885.7 55 -887.8 55L-887.95 55Q-891.81 55 -894.25 51.42Q-895.35 49.6 -895.35 47.49Q-895.35 43.92 -892.2 41.47Q-890.16 40.05 -887.87 40.05ZM-893.82 47.6Q-893.82 50.46 -891.3 52.41Q-889.72 53.47 -887.95 53.47L-887.76 53.47Q-884.96 53.47 -883.04 50.99Q-881.93 49.4 -881.93 47.52Q-881.93 44.3 -884.88 42.42Q-886.34 41.58 -887.87 41.58Q-890.82 41.58 -892.76 44.15Q-893.82 45.68 -893.82 47.6ZM-872.76 40.07L-872.6 40.07Q-871.89 40.22 -871.89 40.7L-871.89 49.09Q-871.89 51.8 -870.35 52.72Q-869.38 53.47 -868.18 53.47Q-865.88 53.47 -864.71 51.1Q-864.47 50.36 -864.47 49.56L-864.47 40.81Q-864.35 40.07 -863.77 40.07L-863.65 40.07Q-862.94 40.21 -862.94 40.78L-862.94 49.96Q-862.94 52.3 -865.19 54.05Q-866.61 55 -868.07 55L-868.34 55Q-870.79 55 -872.6 52.59Q-873.42 51.3 -873.42 49.41L-873.42 40.94Q-873.33 40.07 -872.76 40.07ZM-855.28 40.05L-852 40.05Q-849.9 40.05 -848.57 42.26Q-848.14 43.11 -848.14 44.04L-848.14 44.2Q-848.14 46.26 -850.15 47.58L-850.54 47.78Q-846.95 53.96 -846.95 54.09L-846.95 54.29Q-846.95 54.88 -847.7 55L-847.75 55Q-848.31 55 -848.92 53.66L-852.16 48.14L-854.4 48.14L-854.4 54.29Q-854.4 54.88 -855.15 55L-855.19 55Q-855.8 55 -855.94 54.21L-855.94 40.93Q-855.85 40.05 -855.28 40.05ZM-852.79 41.55L-854.4 41.55L-854.4 46.6L-852.16 46.6Q-850.3 46.6 -849.71 44.59L-849.67 44.27L-849.67 43.96Q-849.67 42.48 -851.33 41.71Q-851.8 41.55 -852.79 41.55ZM-839.86 40.04L-830.14 40.04Q-829.43 40.18 -829.43 40.75L-829.43 40.91Q-829.43 41.48 -830.3 41.57L-834.21 41.57L-834.21 54.29Q-834.21 54.88 -834.96 55L-835 55Q-835.6 55 -835.75 54.21L-835.75 41.57L-839.73 41.57Q-840.53 41.42 -840.53 40.79Q-840.36 40.04 -839.86 40.04ZM-817.08 40.13Q-816.36 40.13 -816.02 41.57Q-811.29 53.89 -811.25 54.18L-811.25 54.29Q-811.25 54.88 -811.98 55L-812.03 55Q-812.71 55 -813.01 53.67L-814.77 49.09L-819.35 49.09L-821.5 54.76Q-821.81 55 -822.05 55L-822.13 55Q-822.87 54.86 -822.87 54.26L-822.87 54.22L-821.54 50.61Q-818.05 41.52 -817.75 40.52Q-817.39 40.13 -817.08 40.13ZM-817.04 43.1L-817.08 43.1L-818.72 47.56L-815.36 47.56L-815.36 47.52L-817.04 43.1ZM-797.41 40.04Q-795.03 40.04 -793.12 41.38Q-792.92 41.65 -792.92 41.89L-792.92 41.93Q-792.92 42.53 -793.71 42.68Q-793.84 42.68 -795.25 42.01Q-796.16 41.66 -797.02 41.66L-797.65 41.66Q-799.85 41.66 -801.86 43.78Q-803.16 45.56 -803.16 47.44L-803.16 47.59Q-803.16 50.66 -800.33 52.59Q-798.85 53.43 -797.37 53.43L-797.21 53.43Q-795.76 53.43 -794.3 52.64L-794.3 49.05L-797.14 49.05Q-797.88 48.93 -797.88 48.3L-797.88 48.27Q-797.76 47.52 -797.14 47.52L-793.47 47.52Q-792.89 47.52 -792.77 48.27L-792.77 52.64Q-792.77 53.59 -793.23 53.82Q-795.25 55 -797.14 55L-797.37 55Q-801.07 55 -803.56 51.57Q-804.73 49.64 -804.73 47.52Q-804.73 43.76 -801.39 41.3Q-799.34 40.04 -797.41 40.04ZM-785.28 40.07L-785.12 40.07Q-784.41 40.22 -784.41 40.7L-784.41 53.47L-777.98 53.47Q-777.35 53.47 -777.23 54.29Q-777.44 55 -777.98 55L-785.19 55Q-785.8 55 -785.94 54.21L-785.94 40.94Q-785.85 40.07 -785.28 40.07ZM-769.37 39.92L-769.17 39.95L-767.69 39.95L-767.54 39.92Q-766.75 40.08 -766.75 40.71Q-766.88 41.5 -767.5 41.5L-767.66 41.5L-767.66 53.45L-767.42 53.45Q-766.9 53.45 -766.75 54.21L-766.75 54.25Q-766.88 55 -767.5 55L-769.37 55Q-770.12 54.86 -770.12 54.25L-770.12 54.21Q-769.96 53.45 -769.44 53.45L-769.2 53.45L-769.2 41.5L-769.37 41.5Q-770.03 41.5 -770.12 40.67L-770.12 40.63Q-770.12 40.14 -769.37 39.92ZM-758.78 40.09L-758.62 40.09Q-758.12 40.09 -757.76 40.88Q-757.17 41.53 -749.2 51.82Q-749.12 51.82 -749.12 51.94L-749.09 51.98L-749.05 51.98L-749.05 40.8Q-748.91 40.09 -748.34 40.09L-748.22 40.09Q-747.64 40.09 -747.52 40.83L-747.52 54.22Q-747.52 54.86 -748.34 55Q-748.79 55 -749.71 53.63L-757.91 43.16L-757.91 54.25Q-757.91 54.83 -758.66 54.96L-758.69 54.96Q-759.3 54.96 -759.44 54.18L-759.44 40.96Q-759.35 40.09 -758.78 40.09ZM-739.38 40.02L-739.38 39.98L-739.18 40.02L-731.43 40.02L-731.28 39.98Q-730.6 39.98 -730.48 40.84Q-730.64 41.56 -731.35 41.56L-738.59 41.56L-738.59 46.9L-733.85 46.9L-733.29 46.85Q-732.76 46.85 -732.58 47.65Q-732.58 48.17 -733.21 48.44L-734.01 48.4L-738.59 48.4L-738.59 53.46L-731.16 53.46Q-730.61 53.46 -730.48 54.29Q-730.69 55 -731.19 55L-739.38 55Q-740.13 54.86 -740.13 54.25L-740.13 40.77Q-740.02 40.02 -739.38 40.02ZM-722.95 40.07L-722.8 40.07Q-722.09 40.22 -722.09 40.7L-722.09 46.93L-714.67 46.93L-714.67 40.81Q-714.55 40.07 -713.96 40.07L-713.85 40.07Q-713.14 40.21 -713.14 40.78L-713.14 54.33Q-713.14 54.84 -713.89 55L-713.93 55Q-714.67 54.86 -714.67 54.25L-714.67 48.42L-722.09 48.42L-722.09 54.29Q-722.09 54.88 -722.83 55L-722.87 55Q-723.47 55 -723.62 54.21L-723.62 40.94Q-723.53 40.07 -722.95 40.07ZM-705.05 40.02L-705.05 39.98L-704.85 40.02L-697.1 40.02L-696.94 39.98Q-696.27 39.98 -696.15 40.84Q-696.31 41.56 -697.02 41.56L-704.26 41.56L-704.26 46.9L-699.52 46.9L-698.95 46.85Q-698.42 46.85 -698.25 47.65Q-698.25 48.17 -698.88 48.44L-699.67 48.4L-704.26 48.4L-704.26 53.46L-696.83 53.46Q-696.28 53.46 -696.15 54.29Q-696.36 55 -696.86 55L-705.05 55Q-705.8 54.86 -705.8 54.25L-705.8 40.77Q-705.68 40.02 -705.05 40.02ZM-688.66 40.05L-685.38 40.05Q-683.29 40.05 -681.95 42.26Q-681.53 43.11 -681.53 44.04L-681.53 44.2Q-681.53 46.26 -683.54 47.58L-683.92 47.78Q-680.34 53.96 -680.34 54.09L-680.34 54.29Q-680.34 54.88 -681.09 55L-681.13 55Q-681.69 55 -682.31 53.66L-685.55 48.14L-687.79 48.14L-687.79 54.29Q-687.79 54.88 -688.54 55L-688.58 55Q-689.18 55 -689.33 54.21L-689.33 40.93Q-689.23 40.05 -688.66 40.05ZM-686.17 41.55L-687.79 41.55L-687.79 46.6L-685.55 46.6Q-683.68 46.6 -683.1 44.59L-683.06 44.27L-683.06 43.96Q-683.06 42.48 -684.71 41.71Q-685.18 41.55 -686.17 41.55ZM-672.9 40.02L-672.9 39.98L-672.7 40.02L-664.95 40.02L-664.8 39.98Q-664.12 39.98 -664.01 40.84Q-664.16 41.56 -664.87 41.56L-672.11 41.56L-672.11 46.9L-667.37 46.9L-666.81 46.85Q-666.28 46.85 -666.1 47.65Q-666.1 48.17 -666.73 48.44L-667.53 48.4L-672.11 48.4L-672.11 53.46L-664.68 53.46Q-664.13 53.46 -664.01 54.29Q-664.21 55 -664.71 55L-672.9 55Q-673.65 54.86 -673.65 54.25L-673.65 40.77Q-673.54 40.02 -672.9 40.02Z" /><g ><g clip-path="url(#cp2)"><g ><g ><path fill-rule="evenodd" class="shp2" d="M0 -448.22C0 -450.14 1.56 -451.7 3.48 -451.7L108.41 -451.7C110.33 -451.7 111.89 -450.14 111.89 -448.22C111.89 -441.9 111.35 -435.71 110.31 -429.69C116.33 -430.73 122.52 -431.27 128.84 -431.27C130.76 -431.27 132.31 -429.71 132.31 -427.79L132.31 -322.86C132.31 -320.94 130.76 -319.38 128.84 -319.38L3.48 -319.38C1.56 -319.38 0 -320.94 0 -322.86L0 -448.22ZM6.96 -346.83C12.61 -347.02 18.16 -347.68 23.54 -348.76C28.08 -367.29 37.39 -383.95 50.09 -397.37C50.15 -397.43 50.2 -397.49 50.26 -397.55C50.89 -398.21 51.53 -398.87 52.18 -399.52C65.95 -413.29 83.41 -423.37 102.94 -428.16C104.02 -433.55 104.68 -439.08 104.87 -444.74L6.96 -444.74L6.96 -346.83ZM47.05 -348.93C46.9 -348.85 46.75 -348.78 46.59 -348.72C41.07 -346.33 35.32 -344.38 29.37 -342.92C28.29 -337.54 27.64 -332 27.45 -326.34L125.36 -326.34L125.36 -424.25C119.7 -424.06 114.16 -423.41 108.77 -422.33C103.99 -402.79 93.9 -385.33 80.13 -371.56C79.48 -370.91 78.82 -370.27 78.16 -369.64C78.1 -369.58 78.05 -369.53 77.99 -369.48C69 -360.97 58.55 -353.98 47.05 -348.93ZM39.51 -353.36C38.63 -354.29 37.72 -355.22 36.78 -356.16L36.79 -356.16L36.78 -356.17C35.86 -357.1 34.92 -358.01 33.97 -358.9C32.95 -356.19 32.03 -353.43 31.23 -350.61C34.04 -351.41 36.8 -352.33 39.51 -353.36ZM101.09 -420.47C90.64 -417.5 80.88 -412.91 72.09 -406.97C74.89 -404.58 77.58 -402.1 80.15 -399.53C82.71 -396.96 85.2 -394.28 87.59 -391.48C93.52 -400.26 98.12 -410.02 101.09 -420.47ZM83.38 -385.7C80.82 -388.77 78.1 -391.74 75.23 -394.61C72.36 -397.48 69.38 -400.2 66.32 -402.77C63.36 -400.45 60.54 -397.98 57.86 -395.36C61.16 -392.61 64.32 -389.72 67.33 -386.71C70.34 -383.7 73.22 -380.54 75.97 -377.25C78.59 -379.93 81.07 -382.75 83.38 -385.7ZM70.93 -372.44C68.25 -375.68 65.4 -378.8 62.41 -381.79C59.42 -384.79 56.29 -387.63 53.06 -390.32C50.59 -387.55 48.28 -384.65 46.13 -381.62C49.06 -379.14 51.85 -376.56 54.51 -373.9C57.17 -371.24 59.75 -368.44 62.24 -365.51C65.26 -367.66 68.17 -369.98 70.93 -372.44ZM36.85 -365.69C38.51 -364.19 40.12 -362.64 41.7 -361.07L41.7 -361.08C43.23 -359.54 44.77 -357.93 46.31 -356.23C49.79 -357.85 53.16 -359.66 56.41 -361.65C54.25 -364.15 51.97 -366.6 49.59 -368.98C47.21 -371.36 44.77 -373.63 42.27 -375.79C40.28 -372.54 38.47 -369.17 36.85 -365.69ZM22.01 -341.39C17.1 -340.55 12.07 -340.03 6.96 -339.87L6.96 -326.34L20.48 -326.34C20.65 -331.45 21.16 -336.48 22.01 -341.39ZM85.28 -406.87C85.28 -404.79 83.59 -403.1 81.51 -403.1C79.42 -403.1 77.74 -404.79 77.74 -406.87C77.74 -408.96 79.42 -410.64 81.51 -410.64C83.59 -410.64 85.28 -408.96 85.28 -406.87Z" /></g></g></g></g><path fill="#eb6353" d="M183.55 -408.55L183.55 -408.7L184.22 -408.55L210.38 -408.55L210.9 -408.7Q213.19 -408.7 213.57 -405.78Q213.05 -403.35 210.66 -403.35L186.22 -403.35L186.22 -385.35L202.22 -385.35L204.12 -385.49Q205.91 -385.49 206.51 -382.82Q206.51 -381.06 204.36 -380.15L201.69 -380.29L186.22 -380.29L186.22 -361.34L186.36 -360.53Q185.77 -358 183.83 -358L183.55 -358Q181.02 -358.46 181.02 -360.53L181.02 -406.02Q181.41 -408.55 183.55 -408.55ZM237.83 -408.91L238.5 -408.8L243.49 -408.8L244.02 -408.91Q246.69 -408.34 246.69 -406.23Q246.23 -403.56 244.16 -403.56L243.6 -403.56L243.6 -363.24L244.41 -363.24Q246.16 -363.24 246.69 -360.67L246.69 -360.53Q246.23 -358 244.16 -358L237.83 -358Q235.3 -358.46 235.3 -360.53L235.3 -360.67Q235.83 -363.24 237.59 -363.24L238.39 -363.24L238.39 -403.56L237.83 -403.56Q235.62 -403.56 235.3 -406.37L235.3 -406.52Q235.3 -408.17 237.83 -408.91ZM285.96 -408.52Q292.5 -408.52 296.86 -402.61L297 -402.05L297 -401.24Q297 -399.52 294.43 -399.1Q293.38 -399.1 290.81 -401.95Q288.49 -403.42 286.38 -403.42L285.57 -403.42Q281.14 -403.42 278.86 -398.71Q278.33 -397.59 278.33 -396.43L278.33 -395.34Q278.33 -390.24 284.48 -387.95Q288.91 -387.95 294.05 -383.8Q299 -378.78 299 -372.77Q299 -365.38 292.68 -360.67Q288.81 -358 284.1 -358Q276.47 -358 271.48 -364.57L271.2 -365.66Q271.65 -368.2 273.76 -368.2Q275.17 -368.2 277.38 -365.38Q280.69 -363.1 283.43 -363.1L284.63 -363.1Q289.97 -363.1 293.24 -369.14Q293.77 -371.11 293.77 -372.1L293.77 -373.43Q293.77 -378.74 287.72 -382.05L280.86 -383.95Q273.2 -388.34 273.2 -395.48L273.2 -396.43Q273.2 -403.46 280.72 -407.43Q283.54 -408.52 285.96 -408.52ZM324.28 -408.38L324.81 -408.38Q327.2 -407.89 327.2 -406.27L327.2 -385.25L352.23 -385.25L352.23 -405.88Q352.65 -408.38 354.62 -408.38L355.01 -408.38Q357.4 -407.92 357.4 -405.99L357.4 -360.25Q357.4 -358.53 354.87 -358L354.73 -358Q352.23 -358.46 352.23 -360.53L352.23 -380.22L327.2 -380.22L327.2 -360.39Q327.2 -358.42 324.7 -358L324.56 -358Q322.52 -358 322.03 -360.67L322.03 -405.46Q322.35 -408.38 324.28 -408.38Z" /><path fill="#eb6353" d="M182.02 -343.4L182.11 -343.4Q182.4 -343.4 182.57 -342.97L184.6 -339.95L184.62 -339.95Q186.8 -343.24 186.89 -343.31Q187 -343.4 187.09 -343.4L187.22 -343.4Q187.49 -343.4 187.6 -342.97Q187.6 -342.79 186.84 -341.75L185.04 -339.07L185.04 -335.49Q184.99 -335 184.67 -335L184.57 -335Q184.29 -335 184.17 -335.36L184.17 -339Q184.17 -339.08 183.24 -340.47L181.67 -342.84L181.64 -342.97Q181.74 -343.4 182.02 -343.4ZM195.56 -343.41Q197.69 -343.41 199.12 -341.44Q199.76 -340.32 199.76 -339.18Q199.76 -337.08 197.86 -335.69Q196.78 -335 195.6 -335L195.51 -335Q193.34 -335 191.97 -337.02Q191.35 -338.04 191.35 -339.22Q191.35 -341.23 193.12 -342.61Q194.27 -343.41 195.56 -343.41ZM192.21 -339.16Q192.21 -337.55 193.63 -336.46Q194.52 -335.86 195.51 -335.86L195.62 -335.86Q197.19 -335.86 198.28 -337.26Q198.9 -338.15 198.9 -339.21Q198.9 -341.02 197.24 -342.08Q196.42 -342.55 195.56 -342.55Q193.9 -342.55 192.81 -341.11Q192.21 -340.24 192.21 -339.16ZM204.06 -343.4L204.15 -343.4Q204.55 -343.31 204.55 -343.04L204.55 -338.32Q204.55 -336.8 205.41 -336.28Q205.96 -335.86 206.63 -335.86Q207.93 -335.86 208.58 -337.19Q208.72 -337.61 208.72 -338.06L208.72 -342.98Q208.79 -343.4 209.12 -343.4L209.18 -343.4Q209.58 -343.32 209.58 -343L209.58 -337.84Q209.58 -336.52 208.32 -335.53Q207.52 -335 206.7 -335L206.55 -335Q205.17 -335 204.15 -336.35Q203.69 -337.08 203.69 -338.15L203.69 -342.91Q203.74 -343.4 204.06 -343.4ZM213.89 -343.41L215.74 -343.41Q216.92 -343.41 217.67 -342.17Q217.91 -341.69 217.91 -341.16L217.91 -341.08Q217.91 -339.92 216.78 -339.17L216.56 -339.06Q218.57 -335.59 218.57 -335.51L218.57 -335.4Q218.57 -335.07 218.15 -335L218.13 -335Q217.81 -335 217.47 -335.76L215.65 -338.86L214.39 -338.86L214.39 -335.4Q214.39 -335.07 213.96 -335L213.94 -335Q213.6 -335 213.52 -335.45L213.52 -342.92Q213.57 -343.41 213.89 -343.41ZM215.29 -342.56L214.39 -342.56L214.39 -339.72L215.65 -339.72Q216.69 -339.72 217.02 -340.85L217.05 -341.04L217.05 -341.21Q217.05 -342.04 216.11 -342.48Q215.85 -342.56 215.29 -342.56ZM222.57 -343.41L228.03 -343.41Q228.43 -343.34 228.43 -343.02L228.43 -342.93Q228.43 -342.61 227.94 -342.55L225.74 -342.55L225.74 -335.4Q225.74 -335.07 225.32 -335L225.3 -335Q224.96 -335 224.88 -335.45L224.88 -342.55L222.64 -342.55Q222.19 -342.64 222.19 -342.99Q222.28 -343.41 222.57 -343.41ZM235.38 -343.37Q235.78 -343.37 235.98 -342.55Q238.64 -335.63 238.66 -335.46L238.66 -335.4Q238.66 -335.07 238.24 -335L238.22 -335Q237.83 -335 237.67 -335.75L236.68 -338.32L234.1 -338.32L232.9 -335.13Q232.72 -335 232.58 -335L232.54 -335Q232.12 -335.08 232.12 -335.42L232.12 -335.44L232.87 -337.47Q234.83 -342.58 235 -343.14Q235.2 -343.37 235.38 -343.37ZM235.4 -341.69L235.38 -341.69L234.45 -339.18L236.35 -339.18L236.35 -339.21L235.4 -341.69ZM246.44 -343.41Q247.78 -343.41 248.86 -342.66Q248.97 -342.51 248.97 -342.38L248.97 -342.35Q248.97 -342.01 248.52 -341.93Q248.45 -341.93 247.66 -342.31Q247.15 -342.51 246.66 -342.51L246.31 -342.51Q245.07 -342.51 243.94 -341.31Q243.21 -340.31 243.21 -339.25L243.21 -339.17Q243.21 -337.44 244.8 -336.35Q245.63 -335.88 246.47 -335.88L246.55 -335.88Q247.37 -335.88 248.19 -336.33L248.19 -338.35L246.59 -338.35Q246.18 -338.42 246.18 -338.77L246.18 -338.79Q246.25 -339.21 246.59 -339.21L248.66 -339.21Q248.99 -339.21 249.06 -338.79L249.06 -336.33Q249.06 -335.79 248.79 -335.66Q247.66 -335 246.59 -335L246.47 -335Q244.39 -335 242.99 -336.93Q242.32 -338.02 242.32 -339.21Q242.32 -341.32 244.2 -342.71Q245.36 -343.41 246.44 -343.41ZM253.27 -343.4L253.36 -343.4Q253.75 -343.31 253.75 -343.04L253.75 -335.86L257.37 -335.86Q257.73 -335.86 257.79 -335.4Q257.67 -335 257.37 -335L253.32 -335Q252.98 -335 252.89 -335.45L252.89 -342.91Q252.95 -343.4 253.27 -343.4ZM262.22 -343.48L262.33 -343.47L263.16 -343.47L263.25 -343.48Q263.69 -343.39 263.69 -343.04Q263.62 -342.59 263.27 -342.59L263.18 -342.59L263.18 -335.87L263.31 -335.87Q263.6 -335.87 263.69 -335.45L263.69 -335.42Q263.62 -335 263.27 -335L262.22 -335Q261.79 -335.08 261.79 -335.42L261.79 -335.45Q261.88 -335.87 262.17 -335.87L262.31 -335.87L262.31 -342.59L262.22 -342.59Q261.85 -342.59 261.79 -343.06L261.79 -343.09Q261.79 -343.36 262.22 -343.48ZM268.17 -343.38L268.26 -343.38Q268.54 -343.38 268.75 -342.95Q269.08 -342.58 273.56 -336.79Q273.61 -336.79 273.61 -336.72L273.62 -336.7L273.65 -336.7L273.65 -342.99Q273.72 -343.38 274.05 -343.38L274.11 -343.38Q274.44 -343.38 274.51 -342.97L274.51 -335.44Q274.51 -335.08 274.05 -335Q273.79 -335 273.27 -335.77L268.66 -341.66L268.66 -335.42Q268.66 -335.09 268.24 -335.02L268.22 -335.02Q267.88 -335.02 267.8 -335.46L267.8 -342.9Q267.85 -343.38 268.17 -343.38ZM279.08 -343.43L279.08 -343.45L279.2 -343.43L283.56 -343.43L283.64 -343.45Q284.02 -343.45 284.09 -342.96Q284 -342.56 283.6 -342.56L279.53 -342.56L279.53 -339.56L282.2 -339.56L282.51 -339.58Q282.81 -339.58 282.91 -339.14Q282.91 -338.84 282.55 -338.69L282.11 -338.71L279.53 -338.71L279.53 -335.87L283.71 -335.87Q284.02 -335.87 284.09 -335.4Q283.97 -335 283.69 -335L279.08 -335Q278.66 -335.08 278.66 -335.42L278.66 -343Q278.73 -343.43 279.08 -343.43ZM288.32 -343.4L288.41 -343.4Q288.81 -343.31 288.81 -343.04L288.81 -339.54L292.98 -339.54L292.98 -342.98Q293.05 -343.4 293.38 -343.4L293.45 -343.4Q293.84 -343.32 293.84 -343L293.84 -335.37Q293.84 -335.09 293.42 -335L293.4 -335Q292.98 -335.08 292.98 -335.42L292.98 -338.7L288.81 -338.7L288.81 -335.4Q288.81 -335.07 288.4 -335L288.37 -335Q288.03 -335 287.95 -335.45L287.95 -342.91Q288 -343.4 288.32 -343.4ZM298.4 -343.43L298.4 -343.45L298.51 -343.43L302.87 -343.43L302.96 -343.45Q303.34 -343.45 303.4 -342.96Q303.31 -342.56 302.91 -342.56L298.84 -342.56L298.84 -339.56L301.51 -339.56L301.82 -339.58Q302.12 -339.58 302.22 -339.14Q302.22 -338.84 301.87 -338.69L301.42 -338.71L298.84 -338.71L298.84 -335.87L303.02 -335.87Q303.33 -335.87 303.4 -335.4Q303.28 -335 303 -335L298.4 -335Q297.98 -335.08 297.98 -335.42L297.98 -343Q298.04 -343.43 298.4 -343.43ZM307.61 -343.41L309.46 -343.41Q310.64 -343.41 311.39 -342.17Q311.63 -341.69 311.63 -341.16L311.63 -341.08Q311.63 -339.92 310.5 -339.17L310.28 -339.06Q312.3 -335.59 312.3 -335.51L312.3 -335.4Q312.3 -335.07 311.87 -335L311.85 -335Q311.53 -335 311.19 -335.76L309.37 -338.86L308.11 -338.86L308.11 -335.4Q308.11 -335.07 307.68 -335L307.66 -335Q307.32 -335 307.24 -335.45L307.24 -342.92Q307.29 -343.41 307.61 -343.41ZM309.01 -342.56L308.11 -342.56L308.11 -339.72L309.37 -339.72Q310.41 -339.72 310.74 -340.85L310.77 -341.04L310.77 -341.21Q310.77 -342.04 309.83 -342.48Q309.57 -342.56 309.01 -342.56ZM316.48 -343.43L316.48 -343.45L316.59 -343.43L320.95 -343.43L321.04 -343.45Q321.42 -343.45 321.48 -342.96Q321.4 -342.56 321 -342.56L316.92 -342.56L316.92 -339.56L319.59 -339.56L319.91 -339.58Q320.21 -339.58 320.31 -339.14Q320.31 -338.84 319.95 -338.69L319.5 -338.71L316.92 -338.71L316.92 -335.87L321.1 -335.87Q321.41 -335.87 321.48 -335.4Q321.37 -335 321.08 -335L316.48 -335Q316.06 -335.08 316.06 -335.42L316.06 -343Q316.12 -343.43 316.48 -343.43Z" /><g ><g clip-path="url(#cp3)"><g ><g ><path fill-rule="evenodd" class="shp3" d="M0 3.48C0 1.56 1.56 0 3.48 0L108.41 0C110.33 0 111.89 1.56 111.89 3.48C111.89 9.79 111.35 15.99 110.31 22.01C116.33 20.97 122.52 20.43 128.84 20.43C130.76 20.43 132.31 21.98 132.31 23.91L132.31 128.84C132.31 130.76 130.76 132.31 128.84 132.31L3.48 132.31C1.56 132.31 0 130.76 0 128.84L0 3.48ZM6.96 104.87C12.61 104.68 18.16 104.02 23.54 102.94C28.08 84.41 37.39 67.75 50.09 54.33C50.15 54.27 50.2 54.21 50.26 54.15C50.89 53.48 51.53 52.83 52.18 52.18C65.95 38.41 83.41 28.33 102.94 23.54C104.02 18.15 104.68 12.61 104.87 6.96L6.96 6.96L6.96 104.87ZM47.05 102.77C46.9 102.85 46.75 102.92 46.59 102.97C41.07 105.37 35.32 107.32 29.37 108.77C28.29 114.16 27.64 119.7 27.45 125.36L125.36 125.36L125.36 27.45C119.7 27.64 114.16 28.29 108.77 29.37C103.99 48.91 93.9 66.37 80.13 80.13C79.48 80.79 78.82 81.43 78.16 82.06C78.1 82.12 78.05 82.17 77.99 82.22C69 90.73 58.55 97.72 47.05 102.77ZM39.51 98.34C38.63 97.41 37.72 96.48 36.78 95.54L36.79 95.54L36.78 95.53C35.86 94.6 34.92 93.69 33.97 92.8C32.95 95.51 32.03 98.27 31.23 101.09C34.04 100.29 36.8 99.37 39.51 98.34ZM101.09 31.23C90.64 34.19 80.88 38.79 72.09 44.73C74.89 47.12 77.58 49.6 80.15 52.17C82.71 54.74 85.2 57.42 87.59 60.22C93.52 51.44 98.12 41.68 101.09 31.23ZM83.38 66C80.82 62.93 78.1 59.96 75.23 57.09C72.36 54.22 69.38 51.5 66.32 48.93C63.36 51.25 60.54 53.72 57.86 56.34C61.16 59.09 64.32 61.97 67.33 64.98C70.34 67.99 73.22 71.15 75.97 74.45C78.59 71.77 81.07 68.95 83.38 66ZM70.93 79.26C68.25 76.02 65.4 72.9 62.41 69.9C59.42 66.91 56.29 64.07 53.06 61.38C50.59 64.15 48.28 67.05 46.13 70.07C49.06 72.56 51.85 75.14 54.51 77.8C57.17 80.46 59.75 83.26 62.24 86.19C65.26 84.04 68.17 81.72 70.93 79.26ZM36.85 86C38.51 87.51 40.12 89.06 41.7 90.63L41.7 90.62C43.23 92.15 44.77 93.77 46.31 95.47C49.79 93.85 53.16 92.03 56.41 90.04C54.25 87.54 51.97 85.1 49.59 82.72C47.21 80.33 44.77 78.06 42.27 75.91C40.28 79.16 38.47 82.53 36.85 86ZM22.01 110.31C17.1 111.15 12.07 111.67 6.96 111.83L6.96 125.36L20.48 125.36C20.65 120.24 21.16 115.22 22.01 110.31ZM85.28 44.83C85.28 46.91 83.59 48.6 81.51 48.6C79.42 48.6 77.74 46.91 77.74 44.83C77.74 42.74 79.42 41.05 81.51 41.05C83.59 41.05 85.28 42.74 85.28 44.83Z" /></g></g></g></g><path fill="#000000" d="M167.55 43.45L167.55 43.3L168.22 43.45L194.38 43.45L194.9 43.3Q197.19 43.3 197.57 46.22Q197.05 48.65 194.66 48.65L170.22 48.65L170.22 66.65L186.22 66.65L188.12 66.51Q189.91 66.51 190.51 69.18Q190.51 70.94 188.36 71.85L185.69 71.71L170.22 71.71L170.22 90.66L170.36 91.47Q169.77 94 167.83 94L167.55 94Q165.02 93.54 165.02 91.47L165.02 45.98Q165.41 43.45 167.55 43.45ZM221.83 43.09L222.5 43.2L227.49 43.2L228.02 43.09Q230.69 43.66 230.69 45.77Q230.23 48.44 228.16 48.44L227.6 48.44L227.6 88.76L228.41 88.76Q230.16 88.76 230.69 91.33L230.69 91.47Q230.23 94 228.16 94L221.83 94Q219.3 93.54 219.3 91.47L219.3 91.33Q219.83 88.76 221.59 88.76L222.39 88.76L222.39 48.44L221.83 48.44Q219.62 48.44 219.3 45.63L219.3 45.48Q219.3 43.83 221.83 43.09ZM269.96 43.48Q276.5 43.48 280.86 49.39L281 49.95L281 50.76Q281 52.48 278.43 52.9Q277.38 52.9 274.81 50.05Q272.49 48.58 270.38 48.58L269.57 48.58Q265.14 48.58 262.86 53.29Q262.33 54.41 262.33 55.57L262.33 56.66Q262.33 61.76 268.48 64.05Q272.91 64.05 278.05 68.2Q283 73.22 283 79.23Q283 86.62 276.68 91.33Q272.81 94 268.1 94Q260.47 94 255.48 87.43L255.2 86.34Q255.65 83.8 257.76 83.8Q259.17 83.8 261.38 86.62Q264.69 88.9 267.43 88.9L268.63 88.9Q273.97 88.9 277.24 82.86Q277.77 80.89 277.77 79.9L277.77 78.57Q277.77 73.26 271.72 69.95L264.86 68.05Q257.2 63.66 257.2 56.52L257.2 55.57Q257.2 48.54 264.72 44.57Q267.54 43.48 269.96 43.48ZM308.28 43.62L308.81 43.62Q311.2 44.11 311.2 45.73L311.2 66.75L336.23 66.75L336.23 46.12Q336.65 43.62 338.62 43.62L339.01 43.62Q341.4 44.08 341.4 46.01L341.4 91.75Q341.4 93.47 338.87 94L338.73 94Q336.23 93.54 336.23 91.47L336.23 71.78L311.2 71.78L311.2 91.61Q311.2 93.58 308.7 94L308.56 94Q306.52 94 306.03 91.33L306.03 46.54Q306.35 43.62 308.28 43.62ZM368.71 43.45L368.71 43.3L369.38 43.45L395.54 43.45L396.07 43.3Q398.35 43.3 398.74 46.22Q398.21 48.65 395.82 48.65L371.39 48.65L371.39 66.65L387.38 66.65L389.28 66.51Q391.07 66.51 391.67 69.18Q391.67 70.94 389.53 71.85L386.86 71.71L371.39 71.71L371.39 88.8L396.45 88.8Q398.32 88.8 398.74 91.61Q398.04 94 396.35 94L368.71 94Q366.18 93.54 366.18 91.47L366.18 45.98Q366.57 43.45 368.71 43.45ZM424.75 43.48L424.75 43.34L425.42 43.48L432.21 43.48L433.68 43.34Q445.04 43.34 453.41 53.22Q458.75 60.14 458.75 68.93Q458.75 81.03 448.1 89.32Q441.35 94 433.82 94L424.75 94Q422.22 93.54 422.22 91.47L422.22 46.01Q422.61 43.48 424.75 43.48ZM430.48 48.54L427.43 48.54L427.43 88.8L433.16 88.8Q445.85 88.8 451.96 76.53Q453.55 72.34 453.55 68.55Q453.55 59.37 445.43 52.55Q440.4 48.54 430.48 48.54Z" /></g></svg>
